<?xml version="1.0" encoding="UTF-8" standalone="no"?>
<svg xmlns:svg="http://www.w3.org/2000/svg" xmlns="http://www.w3.org/2000/svg" version="1.1" width="612.48877" height="111.15626" id="svg3359">
  <defs id="defs3361"/>
  <g transform="translate(-43.75,-476.78125)" id="layer1">
    <path d="m 641.03574,514.9673 c 0,3.83317 -0.39458,8.40228 6.76442,8.40228 1.12741,0 2.36755,-0.22548 3.43858,-0.50733 l 0,-2.93438 c -0.90192,0.28498 -1.91658,0.34136 -2.93125,0.34136 -2.59302,0 -3.94591,-1.40926 -3.88953,-4.00541 l 0,-18.94349 6.42618,0 0,-3.10036 -6.42618,0 0,-7.50035 -3.38222,1.46561 0,6.03474 -5.63701,0 0,3.10036 5.63701,0 0,17.64697 m -14.36497,-7.27175 c 0,6.4262 -2.25481,12.57368 -9.64243,12.57368 -6.48256,0 -8.00455,-7.16214 -8.00455,-12.40456 0,-5.41467 2.08569,-11.38989 8.51189,-11.38989 6.59843,0 9.13509,5.4679 9.13509,11.22077 z m 0.28185,14.82848 3.49494,0 c -0.11275,-1.91659 -0.28185,-4.17453 -0.28185,-6.37295 l 0,-34.33566 -3.3822,0 0,16.57593 -0.11275,0.11275 c -1.97297,-3.32582 -5.922,-5.12967 -9.6988,-5.12967 -8.39914,0 -11.61538,7.5536 -11.61538,14.88484 0,7.10263 3.21624,15.11032 11.61538,15.11032 3.94591,0 7.38762,-1.86021 9.6988,-5.24555 l 0.11275,0.22548 0.16911,4.17452 m -46.68073,-7.89496 c 0,-7.10264 10.03702,-6.20071 14.82848,-6.36983 0.33822,5.91887 -1.07103,12.00998 -8.45865,12.00998 -3.43858,0 -6.36983,-1.80698 -6.36983,-5.64015 z m 14.82848,-9.47018 c -4.11501,0.22548 -9.02235,-0.33822 -12.79915,1.29652 -3.3822,1.40925 -5.69338,4.3405 -5.69338,8.17366 0,5.5274 4.17139,8.7405 9.41382,8.7405 3.8363,0 7.61308,-2.2548 8.85323,-4.62548 l 0.16912,-0.3946 0.11275,0 0.11275,4.17453 3.49495,0 c -0.11275,-1.91659 -0.33823,-4.17453 -0.28185,-6.37295 l 0,-13.41923 c 0.11275,-6.48256 -3.7768,-9.35743 -10.03389,-9.35743 -5.41466,0 -9.75516,2.19843 -10.60071,8.00456 l 3.60768,0 c 0.45097,-3.83318 3.38222,-4.9042 6.93667,-4.9042 4.00227,0 6.36981,1.46561 6.70803,6.08796 l 0,2.59616 m -32.32828,9.8084 c 0,3.83317 -0.39459,8.40228 6.76755,8.40228 1.1274,0 2.36755,-0.22548 3.43857,-0.50733 l 0,-2.93438 c -0.90192,0.28498 -1.91659,0.34136 -2.93124,0.34136 -2.59302,0 -3.94591,-1.40926 -3.88955,-4.00541 l 0,-18.94349 6.4262,0 0,-3.10036 -6.4262,0 0,-7.50035 -3.38533,1.46561 0,6.03474 -5.637,0 0,3.10036 5.637,0 0,17.64697 m -31.56727,-13.70107 c 0,5.24555 4.50962,6.54206 8.96285,7.6131 4.50962,1.01466 8.96599,1.6911 8.96599,5.74975 0,3.94591 -3.77994,5.64015 -7.38762,5.64015 -3.83317,0 -7.55359,-1.24328 -7.83544,-5.47104 l -3.66406,0 c 0.11275,6.26021 5.74975,8.57139 10.65395,8.57139 5.97523,0 11.89722,-2.87488 11.89722,-9.24783 0,-3.04398 -1.86021,-5.58065 -4.79146,-6.59531 -7.66946,-2.70576 -13.13736,-2.31117 -13.13736,-6.48569 0,-3.32583 3.2131,-4.56597 6.36982,-4.56597 3.49495,0 6.6548,1.18376 6.99303,4.73509 l 3.66405,0 c -0.45095,-5.97524 -4.9637,-7.83545 -10.31887,-7.83545 -4.96056,0 -10.3721,2.02932 -10.3721,7.89181 m -15.35771,13.70107 c 0,3.83317 -0.3946,8.40228 6.76441,8.40228 1.13053,0 2.37068,-0.22548 3.4417,-0.50733 l 0,-2.93438 c -0.90191,0.28498 -1.91657,0.34136 -2.93437,0.34136 -2.59303,0 -3.94591,-1.40926 -3.88954,-4.00541 l 0,-18.94349 6.42933,0 0,-3.10036 -6.42933,0 0,-7.50035 -3.3822,1.46561 0,6.03474 -5.63701,0 0,3.10036 5.63701,0 0,17.64697 m -30.94094,-7.27175 c 0,-5.75287 2.53667,-11.22077 9.13197,-11.22077 6.42932,0 8.62776,5.97522 8.62776,11.38989 0,5.24242 -1.63474,12.40456 -8.1173,12.40456 -7.38761,0 -9.64243,-6.14748 -9.64243,-12.57368 z m 0,10.42848 0.11275,0 c 2.31118,3.38534 5.74977,5.24555 9.86792,5.24555 8.23002,0 11.44312,-8.00769 11.44312,-15.11033 0,-7.33123 -3.2131,-14.88483 -11.61224,-14.88483 -3.77993,0 -7.72583,1.80385 -9.6988,5.12967 l -0.11275,-0.11275 -0.16911,-4.17139 -3.49494,0 c 0.11275,1.91659 0.33822,4.17139 0.28185,6.36983 l 0,32.7573 3.3822,0 0,-15.22306 m -15.21053,-7.60995 c 0,5.0733 -2.53665,9.75516 -8.12043,9.75516 -4.62235,0 -7.44085,-2.87801 -7.44085,-7.78221 l 0,-18.26705 -3.38221,0 0,17.70335 c 0,3.26946 0.73281,11.44626 9.97751,11.44626 3.66406,0 6.88029,-1.63474 8.85324,-5.13281 l 0.11275,0.11275 0.16911,4.17452 3.49495,0 c -0.11275,-1.91659 -0.28185,-4.17452 -0.28185,-6.37295 l 0,-21.93111 -3.38221,0 0,16.2941 m -45.94791,4.115 c 0,-7.10264 10.03701,-6.20071 14.82847,-6.36983 0.33821,5.91887 -1.07104,12.00998 -8.45552,12.00998 -3.4417,0 -6.37295,-1.80698 -6.37295,-5.64015 z m 14.82847,-9.47018 c -4.11502,0.22548 -9.02235,-0.33822 -12.79915,1.29652 -3.38221,1.40925 -5.69337,4.3405 -5.69337,8.17366 0,5.5274 4.17138,8.7405 9.4138,8.7405 3.8363,0 7.6131,-2.2548 8.85323,-4.62548 l 0.16912,-0.3946 0.11275,0 0.11275,4.17453 3.49493,0 c -0.11275,-1.91659 -0.33821,-4.17453 -0.28185,-6.37295 l 0,-13.41923 c 0.11275,-6.48256 -3.77678,-9.35743 -10.03387,-9.35743 -5.41466,0 -9.75516,2.19843 -10.60071,8.00456 l 3.60768,0 c 0.45097,-3.83318 3.3822,-4.9042 6.93665,-4.9042 4.00229,0 6.36983,1.46561 6.70805,6.08796 l 0,2.59616 m -43.96557,-23.34348 -3.3822,0 0,40.70861 3.3822,0 0,-16.2941 c 0,-5.07644 2.53666,-9.75515 8.12044,-9.75515 4.62235,0 7.44085,2.87487 7.44085,7.77907 l 0,18.27018 3.3822,0 0,-17.70335 c 0,-3.2726 -0.7328,-11.44626 -9.9775,-11.44626 -3.66719,0 -6.88029,1.63473 -8.85324,5.12967 l -0.11275,0 0,-16.68867 m -32.52869,19.45081 c 0,5.24555 4.51275,6.54206 8.96599,7.6131 4.50961,1.01466 8.96285,1.6911 8.96285,5.74975 0,3.94591 -3.7768,5.64015 -7.38449,5.64015 -3.83317,0 -7.55672,-1.24328 -7.83545,-5.47104 l -3.66719,0 c 0.11275,6.26021 5.75289,8.57139 10.65709,8.57139 5.97523,0 11.89723,-2.87488 11.89723,-9.24783 0,-3.04398 -1.86335,-5.58065 -4.7946,-6.59531 -7.66633,-2.70576 -13.13423,-2.31117 -13.13423,-6.48569 0,-3.32583 3.21309,-4.56597 6.36981,-4.56597 3.49495,0 6.65168,1.18376 6.9899,4.73509 l 3.66405,0 c -0.45095,-5.97524 -4.96056,-7.83545 -10.31572,-7.83545 -4.96058,0 -10.37524,2.02932 -10.37524,7.89181 m -6.52954,7.89495 c 0,-8.85324 -3.43857,-15.78676 -12.90875,-15.78676 -8.40227,0 -12.63003,7.32811 -12.63003,14.99758 0,7.7227 3.94591,14.99758 12.40456,14.99758 6.82077,0 11.04854,-3.10035 12.79601,-9.8679 l -3.55132,0 c -0.84555,3.88954 -4.17139,6.76755 -8.17367,6.76755 -6.93352,0 -9.69878,-5.07645 -9.81152,-11.10805 l 21.87472,0 z m -21.76198,-3.10035 c 0.45096,-4.96371 3.38533,-9.58605 8.90961,-9.58605 5.86249,0 8.79374,4.11501 9.18832,9.58605 l -18.09793,0 m -14.02677,1.63472 c 0,6.4262 -2.25481,12.57368 -9.63928,12.57368 -6.4857,0 -8.00769,-7.16214 -8.00769,-12.40456 0,-5.41467 2.08569,-11.38989 8.51501,-11.38989 6.5953,0 9.13196,5.4679 9.13196,11.22077 z m 0.28185,14.82848 3.49495,0 c -0.11275,-1.91659 -0.28185,-4.17453 -0.28185,-6.37295 l 0,-34.33566 -3.38221,0 0,16.57593 -0.11275,0.11275 c -1.97295,-3.32582 -5.91886,-5.12967 -9.69566,-5.12967 -8.40228,0 -11.61538,7.5536 -11.61538,14.88484 0,7.10263 3.2131,15.11032 11.61538,15.11032 3.94591,0 7.38449,-1.86021 9.69566,-5.24555 l 0.11275,0.22548 0.16911,4.17452 m -47.62961,-16.29411 c 0,-5.07644 2.53665,-9.75515 8.12043,-9.75515 4.62235,0 7.44085,2.87487 7.44085,7.77907 l 0,18.27018 3.38221,0 0,-17.70335 c 0,-3.2726 -0.73281,-11.44626 -9.97751,-11.44626 -3.66719,0 -6.88029,1.63473 -8.85324,5.12967 l -0.11275,-0.11275 -0.16911,-4.17139 -3.49495,0 c 0.11275,1.91659 0.28185,4.17139 0.28185,6.36983 l 0,21.93424 3.38221,0 0,-16.2941 m -30.38661,8.39916 c 0,-7.10264 10.03701,-6.20071 14.82847,-6.36983 0.33821,5.91887 -1.07104,12.00998 -8.45552,12.00998 -3.43858,0 -6.37295,-1.80698 -6.37295,-5.64015 z m 14.82847,-9.47018 c -4.11502,0.22548 -9.01922,-0.33822 -12.79601,1.29652 -3.38535,1.40925 -5.69651,4.3405 -5.69651,8.17366 0,5.5274 4.17451,8.7405 9.41693,8.7405 3.83317,0 7.60997,-2.2548 8.8501,-4.62548 l 0.16912,-0.3946 0.11275,0 0.11275,4.17453 3.49493,0 c -0.11275,-1.91659 -0.33821,-4.17453 -0.28185,-6.37295 l 0,-13.41923 c 0.11275,-6.48256 -3.77678,-9.35743 -10.03387,-9.35743 -5.41154,0 -9.75516,2.19843 -10.60071,8.00456 l 3.61081,0 c 0.44784,-3.83318 3.38221,-4.9042 6.93352,-4.9042 4.00229,0 6.36983,1.46561 6.70805,6.08796 l 0,2.59616 m -22.0877,17.36513 0,-3.38534 -20.46548,0 0,-37.32327 -3.66719,0 0,40.70861 24.13267,0 m 185.01297,37.99032 c 0,-5.07331 2.53666,-9.75203 8.1173,-9.75203 4.62235,0 7.44085,2.87488 7.44085,7.77908 l 0,18.27018 3.38533,0 0,-17.70648 c 0,-3.26947 -0.7328,-11.44313 -9.98063,-11.44313 -3.66405,0 -6.87715,1.63473 -8.85012,5.12967 l -0.11275,-0.11275 -0.16911,-4.17139 -3.49807,0 c 0.11275,1.91659 0.28185,4.17139 0.28185,6.36983 l 0,21.93424 3.38533,0 0,-16.29723 m -10.87315,2.93439 c 0,-8.85324 -3.43857,-15.78676 -12.90876,-15.78676 -8.40227,0 -12.63004,7.32811 -12.63004,14.99757 0,7.72271 3.94592,14.99445 12.40457,14.99445 6.82078,0 11.04853,-3.10035 12.79601,-9.86476 l -3.55131,0 c -0.84555,3.88954 -4.17139,6.76441 -8.17367,6.76441 -6.93666,0 -9.6988,-5.07331 -9.81153,-11.10491 l 21.87473,0 z m -21.762,-3.10349 c 0.45097,-4.96057 3.38222,-9.58292 8.90962,-9.58292 5.86248,0 8.79373,4.11502 9.18832,9.58292 l -18.09794,0 m -30.039,-24.24227 -3.38221,0 0,40.70861 3.38221,0 0,-16.29723 c 0,-5.07331 2.53665,-9.75203 8.12043,-9.75203 4.62235,0 7.44085,2.87488 7.44085,7.77908 l 0,18.27018 3.38221,0 0,-17.70648 c 0,-3.26947 -0.73281,-11.44313 -9.97751,-11.44313 -3.66405,0 -6.88029,1.63473 -8.85324,5.12967 l -0.11275,0 0,-16.68867 m -10.03074,21.08555 c -0.28185,-6.0316 -5.02007,-9.52655 -10.8262,-9.52655 -8.39913,0 -12.63003,7.32811 -12.63003,14.99757 0,7.72271 3.94905,14.99445 12.40456,14.99445 6.42619,0 10.14975,-3.21309 11.05167,-9.69565 l -3.66718,0 c -0.28185,3.88954 -3.32584,6.5953 -7.72272,6.5953 -5.18605,0 -8.39913,-5.4679 -8.39913,-11.95046 0,-6.42933 3.21308,-11.84086 8.39913,-11.84086 4.67873,0 7.44087,2.0857 7.72272,6.4262 l 3.66718,0 m -49.48982,3.32583 c 0,-5.07331 2.53665,-9.75203 8.11729,-9.75203 4.62235,0 7.44086,2.87488 7.44086,7.77908 l 0,18.27018 3.38534,0 0,-17.70648 c 0,-3.26947 -0.73595,-11.44313 -9.98064,-11.44313 -3.66406,0 -6.87716,1.63473 -8.85011,5.12967 l -0.11275,-0.11275 -0.16912,-4.17139 -3.49807,0 c 0.11275,1.91659 0.28185,4.17139 0.28185,6.36983 l 0,21.93424 3.38534,0 0,-16.29723 m -20.73793,-18.60526 4.17139,0 0,-4.96056 -4.17139,0 0,4.96056 z m -9.81154,0 4.17139,0 0,-4.96056 -4.17139,0 0,4.96056 z m 14.7721,22.89254 c 0,5.0733 -2.53665,9.75202 -8.11728,9.75202 -4.62235,0 -7.44399,-2.87487 -7.44399,-7.77907 l 0,-18.26705 -3.38221,0 0,17.70335 c 0,3.26946 0.73281,11.44312 9.98065,11.44312 3.66405,0 6.87715,-1.63472 8.8501,-5.12967 l 0.11275,0.11275 0.16911,4.17452 3.49495,0 c -0.11275,-1.91971 -0.28185,-4.17452 -0.28185,-6.37295 l 0,-21.93111 -3.38221,0 0,16.2941 m -67.52202,12.00995 0,-37.43915 0.11275,0 15.56128,37.43915 3.66406,0 15.56128,-37.60826 0.11275,0 0,37.60826 3.66405,0 0,-40.70861 -5.58064,0 -15.61765,35.46306 -15.27944,-35.46306 -5.86249,0 0,40.70861 3.66405,0" id="path108" style="fill:#000000;fill-opacity:1;fill-rule:nonzero;stroke:none"/>
    <path d="m 49.879262,482.9115 78.658228,0 0,59.63018 c 0,21.84029 -17.63445,39.25553 -39.30249,39.27118 -21.680575,0.0125 -39.355738,-17.59061 -39.355738,-39.27118 0,0 0,-35.30648 0,-59.63018 z" id="path110" style="fill:none;stroke:#000000;stroke-width:2.23601437;stroke-linecap:butt;stroke-linejoin:miter;stroke-miterlimit:3.86400008;stroke-opacity:1;stroke-dasharray:none"/>
    <path d="m 86.447312,494.4471 c 2.12327,0.9896 2.30762,1.46023 3.125,2.53125 0.49171,0.98962 0.46875,1.89164 0.46875,5.8125 0,2.49594 -0.2345,4.89663 -0.1875,5 l -1.09375,0.375 c 0,0 0.33176,-9.15785 0.0937,-9.875 -0.25053,-1.17125 -1.58849,-2.26425 -2.59375,-2.90625 -0.75474,-0.33508 -1.64845,-0.66911 -2.375,-0.5 -2.76526,1.20256 -1.38259,3.90051 -2.21875,8.0625 0.41651,0.0845 0.51472,0.10288 0.9375,0.1875 0,0.90505 0.11526,1.47268 0.28125,2.5625 2.48655,0.25053 3.8934,-0.0845 4.0625,0 0.59721,0.56333 1.5603,2.4963 1.59375,2.5625 l -0.8437,0.28125 c -0.24428,-0.0783 -0.97101,-1.26772 -1.375,-1.75 -2.2548,2.54918 -5.68416,3.25887 -8.71875,3.5 -1.90719,0.24114 -7.84708,-1.05122 -9.21875,-1.9375 -1.34036,-0.85807 -0.62152,-2.20522 -0.78125,-2.6875 0,-0.0814 -2.96329,-2.56702 -4.0625,-3.375 -0.96769,1.34349 1.03351,2.22988 1.4375,2.875 0.64513,0.96455 -0.0661,2.54158 1.625,3.5625 l -0.0312,0.78125 c -2.54919,-0.72655 -1.70209,-3.11372 -2.1875,-4 -0.45409,-0.5637 -0.85488,-0.73647 -1.5,-1.21875 -1.20882,-0.86121 -2.00685,-1.58907 -3.1875,-2.3125 -0.0814,0.31944 -0.24654,0.50887 -0.40625,0.75 1.5032,1.18378 2.46755,1.57709 3.03125,2.0625 0.0814,0 -0.0749,0.58138 -0.15625,0.5 -0.80484,-0.40085 -2.72101,-1.63072 -3.125,-1.875 -0.15971,0.24428 -0.23112,0.30244 -0.3125,0.625 1.44997,1.04598 2.79631,1.73075 3.0625,1.96875 0.80484,0.40399 1.59601,0.43977 2,0.84375 0.0783,0.0814 0.0783,0.30244 0,0.625 -1.04911,-0.24115 -1.79898,-0.86615 -2.28125,-0.625 -0.16285,0.0814 -0.12153,0.0648 -0.28125,0.46875 0.80485,0 2.03125,0.8125 2.03125,0.8125 0,0 -0.21875,0.48113 -0.21875,0.5625 -0.96455,-0.32256 -1.04776,-0.59947 -2.09375,-0.84375 -0.16284,0.40399 -0.28412,0.4429 -0.40625,0.84375 l 7.28125,3.90625 c 0,-1.34349 0.0937,-2.15384 0.0937,-3.28125 1.42491,0.48229 1.03125,2.01227 1.03125,3.59375 0,3.27574 -0.0937,27.13761 -0.0937,43.21875 2.74021,0 4.76531,-0.86014 6.375,-3.4375 0.40398,-0.48541 0.875,-1.42829 0.875,-5.75 0,-4.48455 0.0312,-21.5625 0.0312,-21.5625 0,-1.04597 0.71635,-2.44775 1.84375,-3.5 0.8706,-0.8111 1.53191,-1.15565 2.6875,-1.4375 l 0,35.375 18.0625,0.0312 0,-36 c 0.88626,0.32256 2.186298,1.22642 2.749998,2.03125 0.5637,0.80484 1.26773,1.69316 1.75,3.4375 0.48541,2.25481 0.21875,21.1304 0.21875,21.53125 0,3.0346 -0.23081,5.3648 1.03125,7.21875 1.1274,1.53139 4.15265,2.30591 5.84375,2.46875 l 0,-46.71875 c 0.32256,-0.0814 0.67744,-0.25 1,-0.25 l 0,3.75 4.25,-2.53125 c -0.40397,-0.48541 -0.40504,-0.9922 -0.96875,-1.71875 -0.40398,1.29025 -1.22868,1.69637 -2.4375,1.9375 -0.0815,-0.24113 -0.15625,-0.43057 -0.15625,-0.75 0.96455,-0.32256 1.72761,-0.51651 1.96875,-1.5625 0.1628,-0.80483 -0.35381,-1.1797 -0.0312,-1.90625 0.0814,-0.24113 2.38612,-1.77465 3.03125,-1.9375 0.15971,0.32257 0.23112,0.39619 0.3125,0.71875 -1.66605,1.1274 -1.6635,1.11088 -2.65625,1.875 l 1.6875,3.40625 4.875,-2.65625 -3.5,-7.125 -4.8125,2.5 c 0.24114,0.61694 0.47449,1.04551 0.71875,1.6875 -0.96769,0.5637 -1.59375,0.875 -1.59375,0.875 -0.88,0.51046 0.69956,2.0771 -0.5625,2.5625 -3.67659,1.44993 -8.38937,2.10155 -11.906248,1.375 -2.74021,-0.48227 -4.65279,-2.56476 -4.8125,-2.96875 -1.44996,-2.89992 5.21887,-2.1875 8.093748,-2.1875 -0.40399,-2.14832 -0.72641,-2.69968 -1.53125,-4.3125 -1.584628,-2.71203 -2.947688,-3.90385 -5.499998,-5.03125 -2.2548,-0.85807 -7.114,-1.125 -9.34375,-1.125 z m -2,1.78125 c 1.0272,0.72655 0.84075,0.85442 0.78125,1.71875 -0.78352,-0.60127 -0.95349,-0.6947 -0.78125,-1.71875 z m -1,0.0312 c 0.91759,0.7516 0.87852,0.63199 0.6875,1.75 -0.63572,-0.64512 -0.85974,-0.72907 -0.6875,-1.75 z m 3.125,0 c 0.73904,0.76727 0.84075,0.85442 0.78125,1.71875 -0.83616,-0.52612 -0.95035,-0.69782 -0.78125,-1.71875 z m -1.0625,0.0625 c 0.90505,0.65139 0.84075,0.8544 0.78125,1.71875 -0.81428,-0.66392 -0.95036,-0.69782 -0.78125,-1.71875 z m -0.53125,2.75 c 0.67024,-0.0395 1.18761,0.39989 1.5,1 -1.19004,0.73284 -1.25046,0.73575 -2.5,0.0937 l 0,-0.0937 c 0.0564,-0.49794 0.24586,-0.78085 0.71875,-0.96875 0.10178,-0.0254 0.1855,-0.0256 0.28125,-0.0312 z m -3.75,11.46875 c 0.34761,1.17752 1.07582,1.8173 2.15625,2.5 1.40926,0.97083 3.65084,1.8125 6.1875,1.8125 3.05025,0 5.70981,-1.1128 6.96875,-2.4375 0.66078,-0.6138 1.04631,-1.02632 1.3125,-1.875 l 1.1875,0.375 c -0.27559,1.03972 -0.85454,1.78904 -1.65625,2.53125 -1.34662,1.41551 -3.93063,2.581 -7.15625,2.6875 l 0,13.53125 7.6875,0 0,1.375 -7.6875,0 0,24 -1.40625,0 0,-24 -7.34375,0 0,-1.375 7.375,0 0,-13.53125 c -2.61808,-0.10647 -4.7406,-0.97907 -6.21875,-2 -1.2558,-0.78917 -2.19296,-1.74706 -2.5625,-3.125 l 1.15625,-0.46875 z" id="path112" style="fill:#000000;fill-opacity:1;fill-rule:nonzero;stroke:none"/>
    <path d="m 83.291062,556.91585 c -0.48228,0.16284 -0.71755,1.62034 -1.28125,2.34375 -0.72655,0.94262 -4,2.95414 -4,6.875 2.17337,-1.36855 3.12019,-2.07783 5.375,-3.6875 1.82576,-1.29025 2.6184,-1.44322 2.78125,-1.6875 l 0,-3.84375 -2.875,0 z m 9.3125,0 c 0.0251,2.44583 -0.0255,3.4429 0.21875,3.84375 0.40085,0.5637 1.28651,0.64379 3.21875,2.09375 1.82577,1.42491 2.76799,2.23526 4.593748,3.28125 -0.32256,-4.40314 -1.327808,-4.08668 -2.937498,-5.9375 -0.88626,-0.77977 -2.07488,-3.19987 -2.15625,-3.28125 l -2.9375,0 z" id="path114" style="fill:#000000;fill-opacity:1;fill-rule:nonzero;stroke:#000000;stroke-width:0.26932389;stroke-linecap:butt;stroke-linejoin:miter;stroke-miterlimit:3.86400008;stroke-opacity:1;stroke-dasharray:none"/>
  </g>
</svg>